<svg width="16" height="24" viewBox="0 0 16 24" fill="none" xmlns="http://www.w3.org/2000/svg">
<path d="M9.81332 9.85998L6.95332 12.7266L5.85332 11.6266C5.79355 11.5569 5.72001 11.5002 5.6373 11.4602C5.55459 11.4201 5.4645 11.3977 5.37268 11.3941C5.28087 11.3906 5.18932 11.406 5.10377 11.4396C5.01822 11.4731 4.94052 11.5239 4.87555 11.5889C4.81058 11.6538 4.75974 11.7315 4.72622 11.8171C4.69271 11.9026 4.67724 11.9942 4.68078 12.086C4.68433 12.1778 4.70682 12.2679 4.74683 12.3506C4.78685 12.4333 4.84353 12.5069 4.91332 12.5666L6.47998 14.14C6.54228 14.2018 6.61615 14.2507 6.69738 14.2838C6.7786 14.317 6.86558 14.3338 6.95332 14.3333C7.12821 14.3326 7.29581 14.2631 7.41998 14.14L10.7533 10.8066C10.8158 10.7447 10.8654 10.6709 10.8992 10.5897C10.9331 10.5085 10.9505 10.4213 10.9505 10.3333C10.9505 10.2453 10.9331 10.1582 10.8992 10.0769C10.8654 9.99569 10.8158 9.92196 10.7533 9.85998C10.6284 9.73581 10.4594 9.66612 10.2833 9.66612C10.1072 9.66612 9.93822 9.73581 9.81332 9.85998V9.85998ZM7.99998 5.33331C6.68144 5.33331 5.39251 5.72431 4.29618 6.45685C3.19985 7.18939 2.34537 8.23058 1.84079 9.44876C1.3362 10.6669 1.20418 12.0074 1.46141 13.3006C1.71865 14.5938 2.35359 15.7817 3.28594 16.714C4.21829 17.6464 5.40617 18.2813 6.69938 18.5385C7.99259 18.7958 9.33303 18.6638 10.5512 18.1592C11.7694 17.6546 12.8106 16.8001 13.5431 15.7038C14.2757 14.6075 14.6666 13.3185 14.6666 12C14.6666 11.1245 14.4942 10.2576 14.1592 9.44876C13.8241 8.63992 13.3331 7.90499 12.714 7.28593C12.095 6.66688 11.36 6.17581 10.5512 5.84078C9.74237 5.50575 8.87546 5.33331 7.99998 5.33331V5.33331ZM7.99998 17.3333C6.94515 17.3333 5.914 17.0205 5.03694 16.4345C4.15988 15.8484 3.47629 15.0155 3.07263 14.041C2.66896 13.0664 2.56334 11.9941 2.76913 10.9595C2.97492 9.92493 3.48287 8.97462 4.22875 8.22874C4.97463 7.48286 5.92494 6.97491 6.9595 6.76913C7.99407 6.56334 9.06642 6.66895 10.041 7.07262C11.0155 7.47629 11.8485 8.15988 12.4345 9.03694C13.0205 9.914 13.3333 10.9451 13.3333 12C13.3333 13.4145 12.7714 14.771 11.7712 15.7712C10.771 16.7714 9.41447 17.3333 7.99998 17.3333V17.3333Z" fill="#06826B"/>
</svg>
